<svg width="110" height="23" viewBox="0 0 110 23" fill="none" xmlns="http://www.w3.org/2000/svg">
<path d="M4.08808 17.184H0.63208V0.456H3.72808L9.46408 9.024L15.2001 0.456H18.2961V17.184H14.8161V6.984L9.46408 14.904L4.08808 6.984V17.184Z" fill="black"/>
<path d="M24.9458 2.04C24.9458 3.168 24.0338 4.056 22.9058 4.056C21.8018 4.056 20.8658 3.168 20.8658 2.04C20.8658 0.888 21.8018 0 22.9058 0C24.0338 0 24.9458 0.888 24.9458 2.04Z" fill="black"/>
<path d="M24.7058 17.184H21.1298V5.088H24.7058V17.184Z" fill="black"/>
<path d="M30.6823 17.184H27.1063V5.088H30.6823V6.6C31.1863 5.544 32.5303 4.824 34.2103 4.824C37.1863 4.824 38.8423 6.72 38.8423 9.84V17.184H35.2663V10.272C35.2663 8.88 34.4983 7.992 33.0583 7.992C31.6903 7.992 30.6823 8.976 30.6823 10.392V17.184Z" fill="black"/>
<path fill-rule="evenodd" clip-rule="evenodd" d="M46.594 17.256C43.162 17.256 40.594 14.568 40.594 11.136C40.594 7.656 43.162 4.872 46.594 4.872C48.442 4.872 49.858 5.616 50.194 6.672V5.088H53.77V15.168C53.77 17.664 53.434 19.68 51.658 21.072C50.554 21.936 48.97 22.464 47.266 22.464C44.938 22.464 42.994 21.936 41.338 20.76L43.042 18.168C44.146 18.864 45.346 19.32 46.762 19.32C47.746 19.32 48.634 19.104 49.234 18.696C50.17 18.048 50.29 16.968 50.29 16.056V15.792C49.786 16.632 48.394 17.256 46.594 17.256ZM47.242 8.112C45.514 8.112 44.17 9.432 44.17 11.136C44.17 12.816 45.514 14.112 47.242 14.112C48.994 14.112 50.41 12.816 50.41 11.136C50.41 9.432 48.994 8.112 47.242 8.112Z" fill="black"/>
<path d="M60.3705 17.184H56.8905V8.328H55.2825V5.088H56.8905V0.456H60.3705V5.088H63.0345V8.328H60.3705V17.184Z" fill="black"/>
<path d="M68.7628 17.52C66.0508 17.52 64.3948 16.488 63.4828 15.36L65.5468 13.152C66.1948 13.92 67.4428 14.472 68.8588 14.472C70.1308 14.472 70.6828 14.064 70.6828 13.488C70.6828 12.9177 69.8739 12.7108 68.7558 12.4249C68.2742 12.3017 67.7352 12.1639 67.1788 11.976C65.4988 11.4 64.3948 10.44 64.3948 8.616C64.3948 6.024 66.6508 4.728 69.0988 4.728C71.2588 4.728 72.6508 5.472 73.5628 6.288L71.8588 8.64C71.3308 8.208 70.4188 7.752 69.0028 7.752C68.1868 7.752 67.8028 8.112 67.8028 8.52C67.8028 9.06567 68.2428 9.18205 69.2305 9.44328C69.7199 9.5727 70.3436 9.73767 71.1148 10.008C73.2988 10.752 74.0908 11.904 74.0908 13.44C74.0908 15.768 72.4588 17.52 68.7628 17.52Z" fill="black"/>
<path fill-rule="evenodd" clip-rule="evenodd" d="M83.9381 6.03H88.0401V14.43H85.4641V15.578H83.9381V6.03ZM86.5281 12.82V7.64H85.4641V12.82H86.5281Z" fill="black"/>
<path d="M88.5581 14.08H94.1161V15.48H88.5581V14.08Z" fill="black"/>
<path d="M90.5461 11.826H96.2581V12.428C96.1321 15.634 95.9921 16.852 95.6281 17.286C95.3621 17.636 95.0261 17.762 94.5921 17.804C94.2141 17.874 93.5561 17.86 92.8841 17.832C92.8701 17.44 92.7021 16.894 92.5061 16.544C93.0661 16.586 93.5841 16.6 93.8221 16.6C94.0181 16.6 94.1441 16.572 94.2701 16.432C94.4661 16.18 94.5781 15.298 94.6621 13.072H88.9641V6.142H91.1621C91.3581 5.694 91.5401 5.218 91.6661 4.826L93.3741 5.022C93.2133 5.34364 93.0242 5.65586 92.8455 5.95092C92.8064 6.01546 92.7678 6.07918 92.7301 6.142H95.4881C95.4881 6.142 95.4741 6.52 95.4601 6.702C95.3621 9.362 95.2221 10.426 94.9141 10.804C94.6761 11.112 94.3961 11.224 94.0181 11.266C93.7101 11.322 93.1921 11.336 92.6321 11.308C92.6041 10.916 92.4501 10.384 92.2681 10.034C92.6881 10.076 93.0521 10.09 93.2481 10.09C93.3881 10.09 93.5001 10.062 93.5981 9.936C93.7521 9.74 93.8501 9.082 93.9201 7.388H90.5461V11.826Z" fill="black"/>
<path d="M92.2821 9.992C92.0021 9.558 91.3721 8.9 90.8821 8.424L91.8341 7.738C92.3521 8.172 92.9821 8.816 93.2901 9.236L92.2821 9.992Z" fill="black"/>
<path d="M99.2961 5.12C100.038 5.722 101.046 6.576 101.536 7.192L100.402 8.312C99.9681 7.71 98.9881 6.786 98.2461 6.142L99.2961 5.12Z" fill="black"/>
<path d="M100.822 9.124V14.514L102.026 13.646C102.138 14.094 102.334 14.752 102.488 15.074C100.024 16.964 99.5761 17.342 99.3381 17.678C99.1841 17.356 98.7081 16.81 98.4561 16.586C98.7641 16.306 99.2681 15.704 99.2681 14.92V10.72H97.5601V9.124H100.822Z" fill="black"/>
<path d="M102.404 7.934H107.724V9.32H102.404V7.934Z" fill="black"/>
<path fill-rule="evenodd" clip-rule="evenodd" d="M107.262 10.356V14.934H104.28V15.774H102.824V10.356H107.262ZM105.778 13.548V11.756H104.28V13.548H105.778Z" fill="black"/>
<path d="M102.138 5.442H109.992V15.984C109.992 16.866 109.824 17.314 109.278 17.594C108.76 17.86 107.948 17.902 106.758 17.902C106.702 17.44 106.478 16.684 106.24 16.25C106.88 16.2855 107.58 16.281 107.924 16.2787C107.987 16.2783 108.037 16.278 108.074 16.278C108.326 16.278 108.41 16.194 108.41 15.956V6.968H102.138V5.442Z" fill="black"/>
</svg>
