<svg width="364" height="83" viewBox="0 0 364 83" fill="none" xmlns="http://www.w3.org/2000/svg">
<path d="M86.0685 11.4238C89.0632 10.0053 90.3409 6.42761 88.9224 3.43289C87.5038 0.438166 83.9261 -0.839573 80.9314 0.578981L71.4314 5.07898C68.4367 6.49753 67.159 10.0752 68.5775 13.0699C69.9961 16.0646 73.5737 17.3424 76.5685 15.9238L86.0685 11.4238Z" fill="url(#paint0_radial_51_37)"/>
<path d="M307.723 34.1534C308.837 33.6377 309.312 32.3369 308.785 31.2481C308.257 30.1593 306.926 29.6948 305.812 30.2105L302.277 31.8466C301.163 32.3623 300.688 33.6631 301.215 34.7519C301.743 35.8407 303.074 36.3052 304.188 35.7895L307.723 34.1534Z" fill="url(#paint1_radial_51_37)"/>
<path d="M3.87507 5.3903C6.20739 4.50705 8.8429 5.15867 10.4949 7.02702L29.5 28.521L48.5051 7.02702C50.1571 5.15867 52.7926 4.50705 55.1249 5.3903C57.4572 6.27355 59 8.50746 59 11.0014V55.0014C59 58.3151 56.3137 61.0014 53 61.0014C49.6863 61.0014 47 58.3151 47 55.0014V26.8451L33.9949 41.5534C32.856 42.8414 31.2193 43.579 29.5 43.579C27.7807 43.579 26.144 42.8414 25.0051 41.5534L12 26.8451V55.0014C12 58.3151 9.31371 61.0014 6 61.0014C2.68629 61.0014 0 58.3151 0 55.0014V11.0014C0 8.50746 1.54276 6.27355 3.87507 5.3903Z" fill="black"/>
<path d="M226.77 61.7151C220.76 61.7151 216.308 60.2078 213.107 58.1035C210.588 56.4469 210.746 52.959 212.816 50.7668L213.006 50.5663C214.64 48.8363 217.472 48.9298 219.602 49.9905C221.703 51.0365 224.298 51.6745 227.09 51.6745C231.324 51.6745 233.161 50.3305 233.161 48.433C233.161 46.5543 230.468 45.8728 226.747 44.9309C225.144 44.5251 223.35 44.0711 221.498 43.4522C215.906 41.5548 212.232 38.3924 212.232 32.3839C212.232 23.8454 219.741 19.5762 227.889 19.5762C232.18 19.5762 235.561 20.4496 238.235 21.7254C241.012 23.0507 241.357 26.6138 239.539 29.0968C238.198 30.9287 235.575 31.2243 233.434 30.468C231.866 29.9139 229.928 29.5377 227.569 29.5377C224.853 29.5377 223.575 30.7236 223.575 32.0676C223.575 33.8652 225.04 34.2485 228.327 35.1091C229.956 35.5354 232.032 36.0788 234.599 36.9693C241.868 39.4202 244.504 43.2151 244.504 48.2749C244.504 55.9437 239.072 61.7151 226.77 61.7151Z" fill="black"/>
<path d="M108 32.0014C103.582 32.0014 100 35.5831 100 40.0014V55.0014C100 58.3151 97.3137 61.0014 94 61.0014C90.6863 61.0014 88 58.3151 88 55.0014V40.0014C88 28.9557 96.9543 20.0014 108 20.0014C119.046 20.0014 128 28.9557 128 40.0014V55.0014C128 58.3151 125.314 61.0014 122 61.0014C118.686 61.0014 116 58.3151 116 55.0014V40.0014C116 35.5831 112.418 32.0014 108 32.0014Z" fill="black"/>
<path d="M74 21.0014C77.3137 21.0014 80 23.6877 80 27.0014V55.0014C80 58.3151 77.3137 61.0014 74 61.0014C70.6863 61.0014 68 58.3151 68 55.0014V27.0014C68 23.6877 70.6863 21.0014 74 21.0014Z" fill="black"/>
<path d="M187 11.0014C187 7.6877 189.686 5.0014 193 5.0014C196.314 5.0014 199 7.6877 199 11.0014V20.0014H202C205.314 20.0014 208 22.6877 208 26.0014C208 29.3151 205.314 32.0014 202 32.0014H199V55.0014C199 58.3151 196.314 61.0014 193 61.0014C189.686 61.0014 187 58.3151 187 55.0014V32.0014C183.686 32.0014 181 29.3151 181 26.0014C181 22.6877 183.686 20.0014 187 20.0014V11.0014Z" fill="black"/>
<path fill-rule="evenodd" clip-rule="evenodd" d="M165.894 20.8488C162.672 19.0343 158.948 18.0014 155 18.0014C142.956 18.0014 133 27.6136 133 39.7055C133 51.7974 142.956 61.4096 155 61.4096C158.588 61.4096 161.991 60.5565 165 59.039V60.2973C165 65.5516 160.629 70.0014 155 70.0014C152.569 70.0014 150.365 69.1672 148.644 67.7894C146.057 65.7186 142.281 66.137 140.211 68.724C138.14 71.311 138.558 75.0868 141.145 77.1576C144.934 80.1906 149.766 82.0014 155 82.0014C167.044 82.0014 177 72.3893 177 60.2973V24.0014C177 20.6877 174.314 18.0014 171 18.0014C168.843 18.0014 166.951 19.1399 165.894 20.8488ZM155 30.0014C149.371 30.0014 145 34.4512 145 39.7055C145 44.9598 149.371 49.4096 155 49.4096C160.629 49.4096 165 44.9598 165 39.7055C165 34.4512 160.629 30.0014 155 30.0014Z" fill="black"/>
<path d="M299.275 42.9567H318.287V48C317.867 58.5611 317.401 59.5131 316.19 60.9428C315.305 62.0958 314.186 62.5108 312.742 62.6492C311.484 62.8798 309.293 62.8337 307.057 62.7414C307.01 61.4501 306.451 59.6515 305.798 58.4985C307.662 58.6369 309.387 58.683 310.179 58.683C310.831 58.683 311.25 58.5908 311.67 58.1296C312.322 57.2995 312.695 54.394 312.975 47.0612H294.009V24.2327H301.325C301.977 22.7569 302.583 21.1889 303.003 19.8976L308.688 20.5432C308.152 21.6028 307.523 22.6313 306.928 23.6033C306.798 23.8159 306.67 24.0258 306.544 24.2327H315.724C315.724 24.2327 315.771 29.4005 315.724 30C315.433 37.8075 314.958 38.3269 314.132 39.2282L314.131 39.2297C314.03 39.3395 313.925 39.455 313.813 39.5901C313.021 40.6047 312.089 40.9736 310.831 41.112C309.806 41.2964 308.082 41.3426 306.218 41.2503C306.125 39.959 305.612 38.2065 305.006 37.0536C306.404 37.1919 307.616 37.238 308.268 37.238C308.734 37.238 309.107 37.1458 309.433 36.7307C309.946 36.0851 310.272 33.9175 310.505 28.3372H299.275V42.9567Z" fill="black"/>
<path fill-rule="evenodd" clip-rule="evenodd" d="M290.934 23.8638H277.28V55.3164H282.359V51.5347H290.934V23.8638ZM285.901 29.1673V46.2311H282.359V29.1673H285.901Z" fill="black"/>
<path d="M311.157 50.3817H292.658V54.9936H311.157V50.3817Z" fill="black"/>
<path d="M335.854 27.6916C334.224 25.6624 330.868 22.8491 328.399 20.8661L324.904 24.2327C327.374 26.3541 330.635 29.3979 332.08 31.381L335.854 27.6916Z" fill="black"/>
<path d="M333.478 34.0559V51.8114L337.485 48.9521C337.858 50.4279 338.511 52.5954 339.023 53.6561C330.822 59.8821 329.331 61.1273 328.539 62.2341C328.026 61.1734 326.442 59.3748 325.603 58.6369C326.628 57.7145 328.306 55.7314 328.306 53.1488V39.3134H322.621V34.0559H333.478Z" fill="black"/>
<path d="M356.451 30.1358H338.744V34.7015H356.451V30.1358Z" fill="black"/>
<path fill-rule="evenodd" clip-rule="evenodd" d="M354.913 38.1143V53.1949H344.988V55.962H340.142V38.1143H354.913ZM349.974 48.6292V42.7261H344.988V48.6292H349.974Z" fill="black"/>
<path d="M364 21.9268H337.858V26.9537H358.734V56.5616C358.734 57.3456 358.455 57.6223 357.616 57.6223C357.495 57.6223 357.327 57.6234 357.12 57.6247L357.116 57.6247C355.97 57.6321 353.641 57.6471 351.512 57.5301C352.304 58.9597 353.049 61.4501 353.236 62.972C357.197 62.972 359.899 62.8337 361.623 61.9574C363.441 61.035 364 59.5593 364 56.6538V21.9268Z" fill="black"/>
<defs>
<radialGradient id="paint0_radial_51_37" cx="0" cy="0" r="1" gradientUnits="userSpaceOnUse" gradientTransform="translate(115.891 -49.6141) rotate(119.696) scale(120.35 103.64)">
<stop stop-color="#FF6868"/>
<stop offset="1" stop-color="#FF3131"/>
</radialGradient>
<radialGradient id="paint1_radial_51_37" cx="0" cy="0" r="1" gradientUnits="userSpaceOnUse" gradientTransform="translate(115.891 -49.6141) rotate(119.696) scale(120.35 103.64)">
<stop stop-color="#FF6868"/>
<stop offset="1" stop-color="#FF3131"/>
</radialGradient>
</defs>
</svg>
